<svg id="Слой_1" data-name="Слой 1" xmlns="http://www.w3.org/2000/svg" viewBox="0 0 612.06 596.47" fill="url(#gradient)">
  <defs>
    <linearGradient id="gradient" x1="50%" y1="100%" x2="50%" y2="0" >
      <stop offset="0%" style="stop-color: #eb6308"></stop>
      <stop offset="100%" style="stop-color: #ffd400"></stop>
    </linearGradient>
  </defs>
  <path d="M1.71,540.33l18.83,19.38,97.81-97.2.31,232.92H498.05V464l96.34,95.73L613.77,541l-97-98.12c-25.19-25.19-15.1-19.38-46.22-19.38V668H146.05V423.45c-34.24,0-23.54-4.46-46.22,18.22-12.23,12.16-94.39,93-98.12,98.66Zm212.38-48.9c7.09.12,9.66,2.57,17-.86,5.87-2.69,7.52-7.27,11.56-9.9,0,7.33,1.22,8.68-3.79,14.06-13.21,14.12-25.43.37-35.28-8.38-7.39-6.6-17.85-10.63-10.14-20.29,11.79-14.86,10.08-8.38,17.72-10.94,4.53-1.53,1.47-1.23,5.2-4.35,7,2,16.93,14,21.58,19.2-10.45,22.74-22.86,12-23.9,21.46Zm-105.82-140c0,2.57-1.72,1.29-2.75,5.2,1.71,1.47,5.25,5.62,8.19,7.15,5.07,2.63.85-2,4.28,1.9,1,1.1.36,2.14,3.18,5,6.41,6.48,3.3-2,8.8,6.73,4.16,6.54,4.64,3.66,9.17,5.07,2,4.89-.61,3.48,4,6.79,6.85,4.82,2.26-2.39,6.36,2.75,1.59,2-.86,2,3.79,6.11,6.05,5.44,0-.49,7.34,2.26.91,2.87-.55,4.16,2.93,6.6,6.54,4.59,1.84-1.83,7.09,2.51,5.08,5.14-5.56-1.77,6,8.25L204.18,441c-3.54,8.87-3.24,9.17-9.23,17.06-8.56,11.25-10.33,8.37-14.43,12,1.66,4.77,36.2,31.91,42.43,36.32,10.52,7.39.49,18.95-4,26.83-4.89,8.56-9.6,16.39-14.43,25-9.66,16.93-16.51,11.61-20.05,19.44s9.78,16.75,15.1,21.45l30.93,27.57c4.46,3.49,2.63.86,6.17,1.53,8.2,1.59,1.53,10.7,20.18-11.74,5.19-6.23,7.15-11.92,8.92-19.74,2-9.05,13.45-28.43,18.41-37.66.73-1.34,1.52-2.75,2.07-3.91s.55-1.41,1.1-2.51c5.2-10.27,19.69-17,30.81-13.75,9.85,2.87,10.09,5.19,17.49,11.12,5.68,4.53,10,12.47,15.71,13C349,553,337.76,545.47,337,536.73c9,4.52,7.65,13,15.23,12.84,5.32-2.27-.06-11.13,6.29-22.5,5.26-9.42-3.73-10.58-13.14-10.64,1.22-4.95,12-24.27.31-36.07,1.71-3,4.4-4.7,5.68-9.23-9.78-6.72-13.75-1.4-20.91-4.15-5-2-8.55-10.89-11.61-14.62-3.61-4.34-22.87-19.44-28.49-24-10.76-8.68-5.93-7.21-14.12-9.23-3.42-.86-24-19.44-28.67-23.17-5.75-4.52-11-6.05-15.84-10.45L147,314c-5.8-5.2-8.56-7.4-12.83-13.45-3.61-5.07-.62-1.28-2.45-8.13a83.66,83.66,0,0,0-3.48-9.72c-7.65,0-4.16-.43-9.42,3.67-6-1.77-1.83-2.94-8.62-3.79-3.67,3.3-.67,2.26-6.66,7.64-13.27,12-9.84,12.53-16.39,28.91-4.34,10.76-3.66,7.71,5.57,18.1,5.68,6.48,9.47,8.8,15.59,14.24Zm158.27-75.92c18.64,0,9.47-3.55,17.91-9.54-1,4.22-.61,14.18-4.28,15.83-2.69,1.17-11.37-4.34-13.63-6.29ZM204.79,99h11.62c1.83.24,3.85.61,6.11,1,33.38,6.9,10.46,2.93,28.49,12-.12,6.3-1.71,14.49-.43,19.5,11.86,5.87,10.76,3.18,15.9,5.56-.43,5.2-3.67,7.22-6.05,10.82,2.32.86,5.38-.3,4.7,5.51-.43,3.36-3.05,5.19-4.7,7.58,7.58,6.35,3.24,9.23-2.08,14.61,8.19,4.28,2.87,5.74,1,12.71,2.26,2.57,2.75,2.33,1.83,6.42-.8,3.55-1.41,4.34-4.22,5.69,8.93,6.72-1.89,16.93,10.27,22.92,15.16,7.52,26.78,11,24.94,23.84l-3,40.17L320,304.3c5.62,2.57,11.25,3.79,17.36,6.54,7.95,3.55,9.48,5.2,18.65,5.2,0,8.92-7.22,45.85-10.46,54-11.43,6.54-18.64.61-29.34-3.42l-26.53-11.68c-8.26-5-31.73-18.95-41.82-15.77-3.85,1.16-6.6,6.9-8.8,10.33-15.47,0-13-3.12-24.88-7.34-16-5.56-11.62-9.11-13.27-16.5l-9.53-2.39c1.1-4.15,5.07-8.68,5.68-11.12,1.83-7.34-2.38-4.59.86-12.05s2.08-32.95,1.83-44.87c-.12-5.32-1-7.33-1.22-11.92l-.06-23.78c-.13-20.3,1.71-16.75,1.77-21l-1.16-49.39c-.55-4.71.37-6.91.3-11.31-.24-10.76.8-4.89-11.18-15.35,1.1-7.76,4.4-10.21,10.33-10.33.06-4.34-1.9-11.31,6.29-13.2Zm79.66,164.57c-15.47,7.27-12.53-.86-27.45-1.23,2.2-4.89.37-.91.67-4.7l1.72-21.52C292.09,236.87,284.45,257.23,284.45,263.53Zm-25.06-75.14Zm183.7,280.36c-4.89,10-.43,4.77-9.17,11.06-1.41,1-4.22,3.37-5.75,3.79-3.42,1-.18.25-3.48.25-9.35,0-11.92,1-19.87-4.28-19.38-12.84,2.51-29.83,18.59-29.16,3.91.18,1.22.55,6,2.14,3.91,1.34,3.91-.19,8.07,2.75s8.13,8.37,5.62,13.45ZM403.17,265.54c-10.39,20.54-2.2,16.88-2,33.75.13,10.33-2.81,22.86-10.27,30.2-14.79,14.55-11.67,3.3-16.32,26.65-4.89,24.58-4.34,29.47-4.22,52.94l5,54.66c4.1,16.56,7.16,14.06,19.57,23.41,8.19,6.23,14.85,13.81,21.94,21,4.59-3.06,3.3-3.73,6.24-6.85,3.91-4.22,18.28-6.17,25-18,8.68-15.16,4-28.92-7.64-40.53-7-7-11.43-2.2-14.3-14.43s6.72-12.78,5.62-20-11.49-11.74-2.57-32.22c2.69-6.11,3.73-3.36,6.73-7.58-1.72-7.15-13.94-19.87.06-33.32s29.71-.06,34.72-8.19c3.73-6.05,1.16-13,.31-18.22-1.84-11.18,12.65-42.54,18.34-51.47,21.52-33.74,38-49.58,76.53-66.63,11.93-5.26,26.9-6.48,39.44-9.48-12.9-9-47.14-9.11-62-7.09-54.17,7.4-89.38,30.5-120.86,73.6-3.37,4.59-6.85,6.48-8.74,10.33-5.81,11.74-3.43,5.45-10.52,7.46Z" transform="translate(-1.71 -98.96)"/>
</svg>