<svg xmlns="http://www.w3.org/2000/svg" viewBox="0 0 1162 1500" id="csgo-service-icon" fill="url(#gradient)">
<defs>
	<linearGradient id="gradient" x1="50%" y1="100%" x2="50%" y2="0" >
	  <stop offset="0%" style="stop-color: #eb6308"></stop>
	  <stop offset="100%" style="stop-color: #ffd400"></stop>
	</linearGradient>
  </defs>
  <path d="M722.1 308.59h-43v-7.52c11.76.24 19.25-2.3 14-12.64-7.93-15.59 26.47-14.77 31.54-11.4 9 6 3.08 23.23-2.58 31.56zM663.33 319h52.1c-5.77 8.74-22 38.28-32.49 38.32-4.23-5.88-18.1-25-19.61-38.32zm169.23-62.68a31.11 31.11 0 0 1-8.58 3c-16.4 23.19-6.52 20.48-35.42 39.85.07 38.87 1.18 43.05 10.3 77.48a3 3 0 0 1-2.28 3.72c-7 1.5-17 4.08-22.85 5.17.18 1.22 2.95 23.24-.17 39.62-4.89 25.73-66.13 82-80.74 84.91-20.24 4-42.84-13.87-78.19-29.39-9.75-4.28-42.43-25.77-59.54-31.48-14.2-4.73-28.44 29.83-10.8 39.1 8.21 4.31 21.3 10.12 25.44 20.84 12.26 31.78-1.93 154.34-27.2 179-12-.1-22.08-11.11-31-8.22-15.9 8.7-5.83 57.31 0 65.77 97.84 100.65 86.22 175.18 127.76 230.84 18.94 0 6.51 20.07 20.87 43.64 3.83 12.12-1.1 32.68-3.16 40.48V1091c-1 3.17-2.11 6.32-3.16 9.49v26.56c-2.91 12.94-6.11 30.28-8.85 42.37-5.79 25.5 16.62 45.32 3.15 69.57 0 14.92.05 12-8.85 24 0 23.15-5.45 71.94 0 89.18 3.8 12 47.28 62.8 58.18 67.67 26.29 11.7 65.06 9.18 52.5 50.59-77 23.63-126.1-13.31-167.11-13.92l-1.93 7.06a174 174 0 0 1-53-8.32c0-7.09 8.49-61.5 11.38-70.2l8.86-13.91c3.19-9.27-3.25-77.22-3.8-95.5-16.4-12-19.6-48.77-19.6-68.94-4.73-15.61-4.73-34.12-5.69-54.39-.46-9.52-6.12-23.49-2.53-35.42 2.44-8.14 11.63-11.7 13.91-18.34v-22.77c4.33-24 3-35-11.38-49.33-36 .47-40.95 2.2-60.72-28.46-6.15-9.53-56.48-88.95-61.35-91.07-41.88-18.28-33.54-11.17-51.86-43.64-.75 0-11.9 3.72-21.76 18.46-15 22.39-41.51 95.17-49.08 120.68-4.22 14.23 0 30-6.32 41.74-4.59 8.53-19.54 11.26-22.76 17.07-14.68 26.45-3.69 24.38-31.63 43-5 6.48-5.18 16.21-8.86 24l-6.32 8.86c-4.7 10.09 5 28.49 3.16 34.78a455.67 455.67 0 0 1-17.71 48.7c-12.81 30.4-11.14 70.77-24.05 89.46-6.49 9.39-22.18.23-34.13 7.94-.7 6.53-19.68 49.93-23.4 62V1449c3.57 11.62 13.37 22.69 10.45 37.39-3.1 15.66-57.58 15.41-87.13 11.15-19.79-2.85-25.73-17.43-25.4-34.3.44-19.94 40.7-149.24 38.26-157.84-30.57-34.38 8.18-69.77 19.6-101.83 5.58-15.62 2.15-37.43 8.23-51.85q16.13-29.42 32.26-58.82c19.6-18.53 10.88-19.46 21.5-36.05 9.21-14.4 20.39-24.11 13.91-46.17-13-44.37 15.21-107.27 17.08-153.69-5-5.27-22-3.6-24.12-17.76-4.33-28.82 10.91-79.84 20.32-84.7 4.17-2.15 8.94-.23 12.65-2.52 0-21.63-21.49-141.91-5.17-148 10.07-3.75 33.21-5.74 37.66-7.75-.27-5.12-3.79-16.07-8-16.66-7.17-1-21.89-3.78-33.6-6.48-35.93-8.28-2.68-150-2.24-150.62 9.89-13.06 55.78 4.55 61.35-17.72 15.35-19.57-11.83-94.9 40.53-187.63 17.68-31.31 51.54-62.94 91-49.53 13.23 4.49 5.2 23.51 28.46 3.16.58-11.86-4.93-21.81-8.23-31.62C323 23.81 454-38.7 545.7 27.21c10.31 4.18 16.31 6.24 24 12 5 26.11 30.94 72.58 5.06 103.09a95.48 95.48 0 0 0-31.62 13.91c-.14 10.55 1.22 20.26 3.16 26.56 1.74 5.67 5 7.91-3.49 11.38-1.06.43-.61 4 0 5.3 21.4 4.21 44.22-4 58.53-9.72h17.1v-21.51h8.15v-16.87h8.16v29.15h21.32v9.25h316.15v16.41h14v-60.07H998v48.85h26.91v27.89h83.7v-8.3h13.93v3.65H1162v23.25h-39.5v3.65h-13.93v-8.3h-83.7v8.31H988v-5.63h-15.78v16.89z"></path>
</svg>